<?xml version="1.0" standalone="no"?><!DOCTYPE svg PUBLIC "-//W3C//DTD SVG 1.1//EN" "http://www.w3.org/Graphics/SVG/1.1/DTD/svg11.dtd"><svg t="1591928476766" class="icon" viewBox="0 0 1024 1024" version="1.1" xmlns="http://www.w3.org/2000/svg" p-id="14342" xmlns:xlink="http://www.w3.org/1999/xlink" width="200" height="200"><defs><style type="text/css"></style></defs><path d="M448 384 384 384l0 64L320 448 320 384 256 384 256 320l64 0L320 256l64 0 0 64 64 0L448 384zM599.872 543.872l279.616 286.4c15.488 23.744-6.464 42.56-16.192 53.504C771.584 970.496 648.192 1024 512 1024c-282.752 0-512-229.248-512-512 0-282.752 229.248-512 512-512 150.976 0 304 81.984 380.032 169.792l-0.512 0.512c3.776 1.472 25.408 37.696 3.264 60.48L599.872 543.872zM512 545.984l321.92-344.064C752.512 117.312 638.72 64 512 64 264.576 64 64 264.576 64 512s200.576 448 448 448c113.152 0 216.064-42.368 294.848-111.552L512 545.984zM920 634.688c53.056 0 96-43.008 96-96s-42.944-96-96-96-96 43.008-96 96S866.944 634.688 920 634.688z" p-id="14343" fill="#3acafe"></path></svg>