<?xml version="1.0" standalone="no"?><!DOCTYPE svg PUBLIC "-//W3C//DTD SVG 1.1//EN" "http://www.w3.org/Graphics/SVG/1.1/DTD/svg11.dtd"><svg t="1591786288478" class="icon" viewBox="0 0 1024 1024" version="1.1" xmlns="http://www.w3.org/2000/svg" p-id="10714" width="200" height="200" xmlns:xlink="http://www.w3.org/1999/xlink"><defs><style type="text/css"></style></defs><path d="M831.776157 589.923054c-4.604777-43.796542-47.992006-80.430099-96.08634-80.430099-10.64215 0-23.023883 1.739582-32.540422 4.809433-6.856001-41.44299-47.582692-73.164785-93.118817-73.164785-9.823524 0-16.781853 1.432597-25.582093 4.195463l0-89.946637c0-58.327171-50.345558-105.807535-112.254222-105.807535-61.908664 0-111.230938 47.480364-111.230938 105.807535l0 163.21375c-8.80024-2.660538-12.074748-4.195463-21.898271-4.195463-50.447886 0-91.481563 38.884781-91.481563 86.67213l0 86.876786c0 36.4289 7.367643 71.936844 22.0006 105.295893 14.018987 32.131108 29.777556 61.090037 55.25732 85.853503 52.392126 50.959528 121.873089 79.09983 195.447187 79.09983l31.619466 0c73.574098 0 143.976017-28.037973 196.470471-79.09983 25.582093-24.865794 46.661737-53.722394 60.680723-85.853503C823.692215 759.890477 831.776157 724.382532 831.776157 687.953632 831.776157 687.953632 831.776157 593.29989 831.776157 589.923054zM703.149395 833.669232c-40.522035 39.396423-94.244429 61.090037-151.241331 61.090037l-31.619466 0c-56.996902 0-110.719296-21.693614-151.241331-61.090037-40.317378-39.191766-58.122514-90.969921-58.122514-145.715599l0-57.201559c0 0 0-0.102328 0-0.102328l0-29.572899c0-12.58639 12.791046-23.22854 28.037973-23.22854 15.144599 0 21.693614 10.539822 21.898271 23.023883l0 40.419706c0 17.498151 14.223643 31.721795 31.721795 31.721795s31.721795-14.223643 31.721795-31.721795l0-40.215049c0-0.204657 0-245.690417 0-245.690417 0-10.744479 4.707105-20.977316 13.405016-28.958929 9.41421-8.595583 20.874988-13.405016 34.382332-13.405016s25.991406 4.707105 35.405616 13.405016c8.595583 7.981613 13.405016 18.21445 13.405016 28.958929l0 220.926951c0 17.498151 14.223643 31.721795 31.721795 31.721795s31.721795-14.223643 31.721795-31.721795l0-48.503647c0-12.58639 13.098031-23.22854 28.344959-23.22854s28.037973 10.64215 28.037973 23.22854l0 89.025682c0 17.498151 14.223643 31.721795 31.721795 31.721795s31.721795-14.223643 31.721795-31.721795l0-20.261017c0.920955-12.074748 16.065554-23.637854 31.41481-23.637854 15.963226 0 31.926451 14.632957 31.619466 27.219346 0 0-0.204657 93.221145 0.204657 95.267713C765.569701 747.406416 741.624863 796.319376 703.149395 833.669232z" p-id="10715" fill="#1afa29"></path><path d="M666.413511 369.098431c-17.498151 0-31.721795-14.223643-31.721795-31.721795 0-80.737084-80.020785-146.431898-161.883482-146.431898-89.332667 0-161.883482 65.694814-161.883482 146.431898 0 17.498151-14.223643 31.721795-31.721795 31.721795s-31.721795-14.223643-31.721795-31.721795c0-56.587589 23.740182-109.593684 66.922754-149.297092 42.466274-39.089437 98.746877-60.578395 158.404317-60.578395s115.938043 21.488958 158.404317 60.578395c43.182572 39.703408 66.922754 92.709503 66.922754 149.297092C698.135305 354.874788 683.911662 369.098431 666.413511 369.098431z" p-id="10716" fill="#1afa29"></path></svg>